Coordinates
version=1
nRows=9
nColumns=40
inDegrees=yes

Units are S.I. units (second, meters, Newtons, ...)
If the header above contains a line with 'inDegrees', this indicates whether rotational values are in degrees (yes) or radians (no).

endheader
time	pelvis_tilt	pelvis_list	pelvis_rotation	pelvis_tx	pelvis_ty	pelvis_tz	hip_flexion_r	hip_adduction_r	hip_rotation_r	knee_angle_r	knee_angle_r_beta	ankle_angle_r	subtalar_angle_r	mtp_angle_r	hip_flexion_l	hip_adduction_l	hip_rotation_l	knee_angle_l	knee_angle_l_beta	ankle_angle_l	subtalar_angle_l	mtp_angle_l	lumbar_extension	lumbar_bending	lumbar_rotation	arm_flex_r	arm_add_r	arm_rot_r	elbow_flex_r	pro_sup_r	wrist_flex_r	wrist_dev_r	arm_flex_l	arm_add_l	arm_rot_l	elbow_flex_l	pro_sup_l	wrist_flex_l	wrist_dev_l
      8.80000000000000071054	     27.45817594856442767082	      6.37933898600185678163	   -169.54834877339456511436	      0.39080232313354446028	      0.78310020262210133790	     -0.55767493234527032442	     80.09482304926592632910	    -21.23163095643482733976	     -9.22533226349207069461	     71.85037621253246697961	      1.25402563370530462095	     21.35336207550300358093	      0.00000000000000000000	      0.00000000000000000000	     85.15286263859754001260	     -2.40057815494146709057	      4.40088593339982558916	     71.84113308351196280910	      1.25386431067071013601	     12.62760392088608085714	      0.00000000000000000000	      0.00000000000000000000	    -56.86323466326570041929	     14.32264713113885967743	      2.11670316707755068464	     66.28462761995281482541	    -16.25452970000957719776	     27.61491451191627888306	     21.62718009579807443288	     88.33467859596424887059	      0.00000000000000000000	      0.00000000000000000000	     74.92310034023013542992	    -12.12785367367546562889	     79.24960575455013156443	     17.80658964519633968848	     79.12274745671514608603	      0.00000000000000000000	      0.00000000000000000000
      8.80499999999999971578	     27.49797126438746275312	      6.48722858508943112099	   -169.32715661138101381766	      0.39099350115728992439	      0.78311262447428142686	     -0.55716423395785885653	     80.07187777818155893783	    -21.46482486488044827411	     -9.40862436171258842421	     71.83613751080491738321	      1.25377712147894948558	     21.36588107938607805636	      0.00000000000000000000	      0.00000000000000000000	     85.25164121434360708918	     -2.21719888001200660099	      4.46049659075443205580	     71.80855370874577658924	      1.25329569331279899735	     12.47557676758849432019	      0.00000000000000000000	      0.00000000000000000000	    -56.75545056472445537565	     14.59061793553741637197	      2.02045940301669313399	     66.32677781070576372713	    -16.05832043343647796974	     27.27810935023438076996	     21.38256317588321309131	     88.34903099690372130226	      0.00000000000000000000	      0.00000000000000000000	     74.85302949635932634465	    -12.20791844963895300680	     79.19923335821131615830	     17.90320672935676782345	     78.67066839250230714242	      0.00000000000000000000	      0.00000000000000000000
      8.81000000000000049738	     27.37962459525744662869	      6.59051045298534887706	   -169.43098490243355058738	      0.39074168826545302435	      0.78366711555400503375	     -0.55727346960483037375	     79.84279861037850878347	    -21.29929957579337695961	     -9.55968641640016159045	     71.73237366790451119414	      1.25196610077581516052	     21.32785791345075310232	      0.00000000000000000000	      0.00000000000000000000	     85.10873956933663464497	     -2.32635005841373576629	      4.62591421064377605887	     71.78248550127101168528	      1.25284071726227153043	     12.54925563646161990050	      0.00000000000000000000	      0.00000000000000000000	    -56.89841012358247240854	     14.58914860495760734693	      2.23329838879250175410	     66.34693953064908100714	    -16.13086299337462392600	     27.37346410498109960940	     21.40539955822768547478	     88.33950477161064895881	      0.00000000000000000000	      0.00000000000000000000	     74.83071601182375331973	    -12.00111519903569501366	     79.08595883857077524226	     17.65551042668374037703	     78.53231474261323796782	      0.00000000000000000000	      0.00000000000000000000
      8.81499999999999950262	     27.44131670983726678514	      6.50484005742741366873	   -169.45564458197233648207	      0.39090344609047766866	      0.78377115126440455306	     -0.55717800145456353178	     79.93971825614521264924	    -21.34653057400903719554	     -9.49360297698661703691	     71.71207266177472661184	      1.25161178137738282601	     21.23646936970462917316	      0.00000000000000000000	      0.00000000000000000000	     85.11260297538107977289	     -2.30461733527896850404	      4.53019967888061803052	     71.71152150064449415368	      1.25160216180095140714	     12.53509290641832762958	      0.00000000000000000000	      0.00000000000000000000	    -56.80827177684854234485	     14.52858878911206375051	      2.14053669921397560216	     66.37374471620060489840	    -16.12772458504156602999	     27.61222197104167719317	     21.34433906025449800836	     88.32876202029513024172	      0.00000000000000000000	      0.00000000000000000000	     74.89383274452747230043	    -12.09870114126719720105	     79.52080804090353183256	     17.78141255986967905756	     78.75819714190963338751	      0.00000000000000000000	      0.00000000000000000000
      8.82000000000000028422	     27.41530592087466899898	      6.51930406334467793528	   -169.48134094262883309057	      0.39085064996766089029	      0.78404651806059388885	     -0.55720298843495541519	     79.87125702654333281316	    -21.31732648063768564839	     -9.53879913239666166191	     71.65735063587334252588	      1.25065670185204225184	     21.20414143978220877784	      0.00000000000000000000	      0.00000000000000000000	     85.04956893203961953986	     -2.31168011643072857098	      4.58338257409374882911	     71.66880627197741659984	      1.25085664041996857954	     12.55032630277567662347	      0.00000000000000000000	      0.00000000000000000000	    -56.82135457257503219353	     14.52240280045077547300	      2.18322142704149291248	     66.36652713804210179660	    -16.07633076344522748968	     27.41716651793995751518	     21.25807411827908666169	     88.32937652786594640020	      0.00000000000000000000	      0.00000000000000000000	     74.81779217396534420459	    -12.03175462816035512503	     79.01580464746879783888	     17.71695551119694300723	     79.53573058475096502207	      0.00000000000000000000	      0.00000000000000000000
      8.82499999999999928946	     27.47074620626005980739	      6.50917118850023701526	   -169.54816098095196252871	      0.39092626326170093476	      0.78409839133250436305	     -0.55726978140918792537	     79.93346041972091597927	    -21.23489213140101838917	     -9.47124311021185505410	     71.61461177205548267466	      1.24991076795985911474	     21.16899085961424731295	      0.00000000000000000000	      0.00000000000000000000	     85.08790003282335590029	     -2.35153190094664621412	      4.58269060771159519874	     71.65289107821683955990	      1.25057886788775363129	     12.54382993060183437706	      0.00000000000000000000	      0.00000000000000000000	    -56.73805170435366562742	     14.47419330899772660359	      2.20578728018257130827	     66.33093589351933871967	    -16.05489353602479596361	     27.31282266053199592193	     21.21750540522612027416	     88.33616265648447551939	      0.00000000000000000000	      0.00000000000000000000	     74.82668296582943412432	    -11.99430042981147082060	     79.33574876646224538490	     17.69049831601506639345	     78.99060576780843234701	      0.00000000000000000000	      0.00000000000000000000
      8.83000000000000007105	     27.48755499950301484091	      6.61927674089537276814	   -169.53521069189631020890	      0.39100530480385908838	      0.78428773319684985665	     -0.55714307084476510923	     79.88100786529713559503	    -21.22548063975031240602	     -9.61596439392475232921	     71.54611894552499506972	      1.24871534262290473372	     21.12902304505172423887	      0.00000000000000000000	      0.00000000000000000000	     85.10907711224767524527	     -2.30945175975091387954	      4.74743071397729021754	     71.60740824891617251069	      1.24978504276333457490	     12.54466705096534084873	      0.00000000000000000000	      0.00000000000000000000	    -56.69901398022673788546	     14.58350117040888171971	      2.30803443139605146683	     66.31370102511759512254	    -16.06154827672179052911	     27.18534081662208379271	     21.19302293399661962781	     88.33630288983323453067	      0.00000000000000000000	      0.00000000000000000000	     74.77188129761985635469	    -11.90524733298530790648	     79.11454441514851509965	     17.61316936567356705723	     79.40694736106794948682	      0.00000000000000000000	      0.00000000000000000000
      8.83500000000000085265	     27.56301003325722476234	      6.60843548080310405624	   -169.54081704376784500710	      0.39115084210642103724	      0.78430699698500938588	     -0.55705676980829654799	     79.96302378757674489407	    -21.26227856105860780644	     -9.62524386222610672803	     71.52163775578962656709	      1.24828806525721702769	     21.01846044312614836258	      0.00000000000000000000	      0.00000000000000000000	     85.14506245771640635667	     -2.26520657586353513224	      4.75633806939896341959	     71.53616831576822221450	      1.24854167137100202645	     12.57460998059960033402	      0.00000000000000000000	      0.00000000000000000000	    -56.58211886638014220807	     14.58868105086808242277	      2.30292392003930634914	     66.23011365364146740831	    -16.09271130244503211770	     27.06249346424943169609	     21.25288684257048288373	     88.33950650575221175131	      0.00000000000000000000	      0.00000000000000000000	     74.73353479869639670596	    -11.80065018649409402940	     79.07953335313887066604	     17.46388077464547805562	     79.55691199695229443023	      0.00000000000000000000	      0.00000000000000000000
      8.83999999999999985789	     27.54097434366924446181	      6.62254939977754553126	   -169.65926616460706100042	      0.39119557697302309585	      0.78452171476461896038	     -0.55720236978405390804	     79.90373212164244876021	    -21.11433804208945019809	     -9.62477845932897047021	     71.43422017796284251290	      1.24676234070002123211	     21.07394785821184157726	      0.00000000000000000000	      0.00000000000000000000	     85.12031259693419826817	     -2.36311056960278653705	      4.80876469971151720983	     71.54215863361663707565	      1.24864622214069798112	     12.54061595966150655102	      0.00000000000000000000	      0.00000000000000000000	    -56.59046612053100488993	     14.53103391395270094222	      2.39041301867054301056	     66.25351771135174772098	    -16.09108042230982604792	     27.24274273942362256662	     21.20352001806053721111	     88.33672358465193497068	      0.00000000000000000000	      0.00000000000000000000	     74.69586827042425625223	    -11.81247603803223711338	     79.18938103805319883577	     17.54527579591333363851	     79.45670634847346036622	      0.00000000000000000000	      0.00000000000000000000
